<svg
  xmlns="http://www.w3.org/2000/svg"
  xmlns:xlink="http://www.w3.org/1999/xlink"
  aria-hidden="true"
  role="img"
  width="64"
  height="64"
  preserveAspectRatio="xMidYMid meet"
  viewBox="0 0 256 256"
>
  <defs>
    <linearGradient
      id="sun-gradient"
      x1="0%"
      x2="100%"
      y1="0%"
      y2="100%"
    >
      <stop offset="0%" stop-color="#FFD700" />
      <stop offset="100%" stop-color="#FFA500" />
    </linearGradient>
    <linearGradient
      id="cloud-gradient"
      x1="0%"
      x2="100%"
      y1="0%"
      y2="100%"
    >
      <stop offset="0%" stop-color="#B0C4DE" />
      <stop offset="100%" stop-color="#708090" />
    </linearGradient>
  </defs>
  <!-- Sun -->
  <circle
    cx="128"
    cy="72"
    r="40"
    fill="url(#sun-gradient)"
  />
  <!-- Sun Rays -->
  <g stroke="#FFA500" stroke-width="4">
    <line x1="128" y1="12" x2="128" y2="40" />
    <line x1="128" y1="104" x2="128" y2="132" />
    <line x1="68" y1="72" x2="96" y2="72" />
    <line x1="160" y1="72" x2="188" y2="72" />
    <line x1="88" y1="48" x2="108" y2="28" />
    <line x1="148" y1="116" x2="168" y2="96" />
    <line x1="88" y1="96" x2="108" y2="116" />
    <line x1="148" y1="28" x2="168" y2="48" />
  </g>
  <!-- Cloud -->
  <ellipse
    cx="160"
    cy="160"
    rx="60"
    ry="40"
    fill="url(#cloud-gradient)"
  />
  <ellipse
    cx="100"
    cy="170"
    rx="50"
    ry="35"
    fill="url(#cloud-gradient)"
  />
  <!-- Raindrops -->
  <path
    d="M120 200c4 8-4 16-8 8s-4-16 4-8zM140 200c4 8-4 16-8 8s-4-16 4-8zM160 200c4 8-4 16-8 8s-4-16 4-8z"
    fill="#87CEEB"
  />
</svg>
